<?xml version="1.0" encoding="UTF-8"?>
<!DOCTYPE svg PUBLIC "-//W3C//DTD SVG 1.1//EN" "http://www.w3.org/Graphics/SVG/1.1/DTD/svg11.dtd">
<!-- Creator: CorelDRAW -->
<svg xmlns="http://www.w3.org/2000/svg" xml:space="preserve" width="606px" height="133px" version="1.1" style="shape-rendering:geometricPrecision; text-rendering:geometricPrecision; image-rendering:optimizeQuality; fill-rule:evenodd; clip-rule:evenodd"
viewBox="0 0 605.701 133.354"
 xmlns:xlink="http://www.w3.org/1999/xlink"
 xmlns:xodm="http://www.corel.com/coreldraw/odm/2003">
 <defs>
  <style type="text/css">
   <![CDATA[
    .fil0 {fill:#3E3E3E;fill-rule:nonzero}
    .fil1 {fill:#B66317;fill-rule:nonzero}
   ]]>
  </style>
 </defs>
 <g id="Layer_x0020_1">
  <metadata id="CorelCorpID_0Corel-Layer"/>
  <g id="_2650635095088">
   <path class="fil0" d="M11.42 61.649l40.566 0c5.766,0 10.141,-1.278 13.096,-3.835 2.983,-2.528 4.46,-6.278 4.46,-11.221 0,-4.801 -1.477,-8.579 -4.46,-11.249 -2.955,-2.699 -7.13,-4.034 -12.528,-4.034l-41.134 0 0 30.339zm-11.42 50.963l0 -91.87 52.724 0c8.92,0 15.937,2.216 21.051,6.648 5.141,4.431 7.698,10.51 7.698,18.209 0,7.982 -2.472,14.459 -7.443,19.374 -4.943,4.943 -11.562,7.414 -19.8,7.414l-42.81 0 0 40.225 -11.42 0zm111.301 -50.963l40.566 0c5.766,0 10.141,-1.278 13.095,-3.835 2.983,-2.528 4.46,-6.278 4.46,-11.221 0,-4.801 -1.477,-8.579 -4.46,-11.249 -2.954,-2.699 -7.13,-4.034 -12.527,-4.034l-41.134 0 0 30.339zm-11.42 50.963l0 -91.87 52.724 0c8.977,0 15.993,2.273 21.107,6.79 5.085,4.516 7.642,10.766 7.642,18.749 0,6.647 -1.989,12.329 -5.966,17.072 -4.005,4.745 -9.261,7.699 -15.795,8.864l22.953 40.395 -12.612 0 -22.982 -40.225 -35.651 0 0 40.225 -11.42 0z"/>
   <path class="fil0" d="M331.852 112.612l62.042 -81.302 -56.758 0 0 -10.568 77.552 0 -60.65 81.302 60.31 0 0 10.568 -82.496 0zm86.728 0l62.042 -81.302 -56.758 0 0 -10.568 77.553 0 -60.65 81.302 60.309 0 0 10.568 -82.496 0zm116.698 -35.452l40.453 0 -20.311 -40.68 -20.142 40.68zm-29.628 35.452l45.025 -91.87 9.488 0 45.538 91.87 -12.414 0 -12.471 -24.714 -50.764 0 -12.159 24.714 -12.243 0z"/>
   <path class="fil1" d="M239.034 14.225l-0.021 0.008c-14.049,5.17 -24.624,15.694 -30.363,28.532 -5.763,12.894 -6.66,28.132 -1.324,42.653 5.336,14.52 15.884,25.549 28.621,31.641 12.686,6.068 27.565,7.238 41.629,2.075l0.016 -0.006c5.122,-1.882 9.774,-4.469 13.891,-7.615 2.718,-2.075 5.206,-4.393 7.446,-6.911l-47.109 -29.984 59.073 -21.708 -0.081 -0.299c-0.398,-1.454 -0.902,-3.013 -1.513,-4.675l-0.008 -0.022c-5.338,-14.51 -15.881,-25.531 -28.612,-31.62 -12.691,-6.069 -27.577,-7.239 -41.645,-2.069zm-2.815 -10.638c16.648,-5.822 34.182,-4.331 49.179,2.841 15.239,7.289 27.843,20.443 34.197,37.733l0.343 0.934 0 0.026c0.508,1.459 0.984,2.999 1.426,4.616 0.527,1.922 0.961,3.816 1.304,5.679l0.837 4.542 -47.137 17.321 38.435 24.463 -3.344 4.688c-3.708,5.196 -8.179,9.86 -13.326,13.791 -4.944,3.777 -10.504,6.882 -16.602,9.141l-0.165 0.062c-16.932,6.221 -34.853,4.811 -50.138,-2.5 -15.239,-7.288 -27.843,-20.442 -34.196,-37.73 -6.354,-17.29 -5.268,-35.472 1.624,-50.89 6.914,-15.468 19.662,-28.148 36.603,-34.374l0.934 -0.343 0.026 0z"/>
  </g>
 </g>
</svg>
